<svg xmlns="http://www.w3.org/2000/svg" viewBox="0 0 220.79 24.08"><defs><style>.cls-1{fill:#666;}.cls-2{fill:#00a773;}</style></defs><title>Asset 33</title><g id="Layer_2" data-name="Layer 2"><g id="header"><path class="cls-1" d="M45.79,17.5a3,3,0,0,1-2.5-1.08,4.88,4.88,0,0,1-.81-2.95V5.54l3.45-1v8.31c0,.9.29,1.24,1.23,1.24h.57V17.5Z"/><path class="cls-1" d="M101.09,17.5a2.16,2.16,0,0,1-1.54-.71,2.52,2.52,0,0,1-.71.52,2.1,2.1,0,0,1-.89.19H93.47a1.64,1.64,0,0,1-.43-.09c-.16,0-.19-.13-.19-.21V14.28c0-.08,0-.14.19-.17a2.11,2.11,0,0,1,.43,0h3.38A1,1,0,0,0,97.94,13V9.4l3.28-1V13c0,.71.33,1.06,1,1.06h15V17.5Z"/><path class="cls-1" d="M142.35,17.5a2.16,2.16,0,0,1-1.54-.71,2.52,2.52,0,0,1-.71.52,2.1,2.1,0,0,1-.89.19h-4.48a1.64,1.64,0,0,1-.43-.09c-.16,0-.19-.13-.19-.21V14.28c0-.08,0-.14.19-.17a2.11,2.11,0,0,1,.43,0h3.38A1,1,0,0,0,139.2,13V9.38l3.28-1V13c0,.71.33,1.06,1,1.06h13.44V17.5Z"/><path class="cls-1" d="M180.51,17.45A2.93,2.93,0,0,1,178,16.37a4.88,4.88,0,0,1-.8-2.95V5.54l3.45-1.08v8.32c0,.55.06.89.22,1a1.6,1.6,0,0,0,1,.2h9.88v3.45Z"/><path class="cls-1" d="M181.43,14.22c0-.08.07-.14.22-.17a2.44,2.44,0,0,1,.46,0h11.46c.61,0,.92-.32.92-1V10.39h3.45v2.67a1.23,1.23,0,0,0,.31.93,1,1,0,0,0,.73.31,1.11,1.11,0,0,0,.76-.31,1.17,1.17,0,0,0,.34-.93V10.39h3.45v2.67a1.16,1.16,0,0,0,.32.93,1.11,1.11,0,0,0,.75.31,1,1,0,0,0,.74-.31,1.23,1.23,0,0,0,.32-.93V9.38l3.45-1.09v4.95a6.39,6.39,0,0,1-.26,1.79,4.05,4.05,0,0,1-.72,1.41,3.36,3.36,0,0,1-1.19.93,3.75,3.75,0,0,1-1.63.34,3.38,3.38,0,0,1-3-1.39,3.73,3.73,0,0,1-1.35,1,3.82,3.82,0,0,1-1.59.36,3.65,3.65,0,0,1-1.6-.36,3.08,3.08,0,0,1-1.22-1,3.09,3.09,0,0,1-1.1.8,4.47,4.47,0,0,1-1.78.32H182.11a1.88,1.88,0,0,1-.46-.09c-.16,0-.22-.13-.22-.21Z"/><path class="cls-1" d="M142.81,14.28c0-.08.08-.14.24-.17a2.63,2.63,0,0,1,.48,0h15c.61,0,.89-.32.89-1V10.45h3.45v2.67a1.23,1.23,0,0,0,.33.93,1,1,0,0,0,.74.31,1.28,1.28,0,0,0,.82-.31,1.2,1.2,0,0,0,.41-.93V10.45h3.28v2.67a1.17,1.17,0,0,0,.34.93,1.13,1.13,0,0,0,.76.31,1,1,0,0,0,.72-.31,1.23,1.23,0,0,0,.31-.93V9.43L174,8.35V13.3a6.41,6.41,0,0,1-.24,1.79A4,4,0,0,1,173,16.5a3.35,3.35,0,0,1-1.19.93,3.74,3.74,0,0,1-1.63.34,3.38,3.38,0,0,1-3-1.39,3.73,3.73,0,0,1-1.35,1,3.81,3.81,0,0,1-1.59.36,3.65,3.65,0,0,1-1.6-.36,3.08,3.08,0,0,1-1.22-1,3.09,3.09,0,0,1-1.1.8,4.47,4.47,0,0,1-1.78.32H143.53a2,2,0,0,1-.48-.09c-.16,0-.24-.13-.24-.21Z"/><polygon class="cls-1" points="212.36 17.5 215.81 17.5 215.81 6.12 212.36 7.23 212.36 17.5"/><rect class="cls-1" x="135.6" y="20.29" width="3.14" height="3.14" transform="translate(218.7 134.31) rotate(-135)"/><rect class="cls-1" x="138.75" y="20.29" width="3.14" height="3.14" transform="translate(224.09 136.54) rotate(-135)"/><path class="cls-1" d="M134.53,17.5a2.54,2.54,0,0,1-2-.78,3.54,3.54,0,0,1-2.64,1,3.38,3.38,0,0,1-3-1.4,3.72,3.72,0,0,1-1.35,1,3.81,3.81,0,0,1-1.59.35,3.65,3.65,0,0,1-1.6-.36,3.08,3.08,0,0,1-1.22-1,3.11,3.11,0,0,1-1.1.81,4.46,4.46,0,0,1-1.78.33H101.62a2.07,2.07,0,0,1-.48-.09c-.16,0-.24-.13-.24-.21V14.26c0-.08.09-.13.24-.16a2.65,2.65,0,0,1,.48,0h16.52c.61,0,.88-.33.88-1V10.45h3.45V13.1a1.23,1.23,0,0,0,.33.93,1,1,0,0,0,.74.31,1.27,1.27,0,0,0,.82-.31,1.2,1.2,0,0,0,.41-.93V10.45H128V13.1a1.17,1.17,0,0,0,.34.93,1.13,1.13,0,0,0,.76.31,1,1,0,0,0,.72-.31,1.23,1.23,0,0,0,.31-.93V9.43l3.45-1.08v5c0,.44.31.66.89.66h1.58V17.5Z"/><path class="cls-1" d="M210.89,6.08,207.66,5l.75-2.22A3.32,3.32,0,0,1,212,.55h0c.07,0,6.59.74,8.77,1L219.62,4.9c-2.09-.27-6.88-.71-8-.87Z"/><path class="cls-1" d="M87.55,17.5H82V12.9a4.57,4.57,0,0,1,4.51-4.58h1A4.55,4.55,0,0,1,92,12.9V13A4.5,4.5,0,0,1,87.55,17.5Zm-2.08-3.45h2.08a1.05,1.05,0,0,0,1-1.08V12.9a1.1,1.1,0,0,0-1-1.13h-1a1.13,1.13,0,0,0-1.07,1.13Z"/><path class="cls-1" d="M81.86,23l-3.45,1.09v-5.5a4.46,4.46,0,0,1,4.46-4.5h.79V17.5h-.79a1,1,0,0,0-1,1.06Z"/><path class="cls-1" d="M94.82,17.5H93.13A4.55,4.55,0,0,1,88.59,13v-.4H92l0,.44a1,1,0,0,0,1.07,1h1.69Z"/><path class="cls-1" d="M35.09,14.06H33a1.07,1.07,0,0,1-1.05-.9L30.44,4.51l-3.28,1,1.36,8.19A4.5,4.5,0,0,0,33,17.5h2.13Z"/><path class="cls-1" d="M31.62,12.67,30.66,7c-.09-.53-.43-.66-.9-.91a1.75,1.75,0,0,0-1.53.16c-1.07.51-3.06,1.49-4.1,2a3.53,3.53,0,0,0-2,3.92,3,3,0,0,0,2.64,2.62,5.16,5.16,0,0,0,1.75,0l3.82-.58C31.22,14.07,31.77,13.58,31.62,12.67Zm-5.76-.59a.8.8,0,0,1-1-.55c-.12-.47.34-.81.55-.92l2.36-1.1.34,2.17Z"/><path class="cls-1" d="M73.18,9.35V13a.94.94,0,0,1-1.05,1.06H65.3v.65a2.59,2.59,0,0,0,2.54,2.79h5a3.06,3.06,0,0,0,1.46-.38,4,4,0,0,0,1.15-1,4.44,4.44,0,0,0,.75-1.32,4.28,4.28,0,0,0,.24-1.54v-5Z"/><path class="cls-1" d="M64.13,17.5H45.92V14.06H64.13c.75,0,1.11-.24,1.11-.85s-.44-.92-1-1.14c-1.77-.68-4.78-2-5.23-2.08l.3-3.86,7.81-3.7.06,3.26L62.23,7.95s1.74.73,3.51,1.52,3,2,3,3.48A4.56,4.56,0,0,1,64.13,17.5Z"/><polygon class="cls-1" points="60.22 5 66.4 1.98 66.34 0.98 60.22 3.94 60.22 5"/><path class="cls-1" d="M37.39,9.35V13a.94.94,0,0,1-1.05,1.06H31.81v.65a2.86,2.86,0,0,0,2.87,2.79h2.4a3.06,3.06,0,0,0,1.46-.38,4,4,0,0,0,1.15-1,4.44,4.44,0,0,0,.75-1.32,4.28,4.28,0,0,0,.24-1.54V8.24Z"/><rect class="cls-1" x="93.25" y="3.11" width="3.14" height="3.14" transform="translate(158.55 75.04) rotate(-135)"/><rect class="cls-1" x="96.4" y="3.11" width="3.14" height="3.14" transform="translate(163.93 77.27) rotate(-135)"/><rect class="cls-1" x="35.24" y="3.15" width="3.14" height="3.14" transform="translate(59.5 34.08) rotate(-135)"/><rect class="cls-1" x="68.26" y="20.26" width="3.14" height="3.14" transform="translate(103.77 86.64) rotate(-135)"/><rect class="cls-1" x="71.42" y="20.26" width="3.14" height="3.14" transform="translate(109.16 88.87) rotate(-135)"/><polygon class="cls-2" points="8.11 11.84 0 19.94 3.74 23.68 15.59 11.84 3.74 0 0 3.73 8.11 11.84"/></g></g></svg>